<?xml version="1.0" encoding="utf-8"?>
<!-- Generator: Adobe Illustrator 17.0.0, SVG Export Plug-In . SVG Version: 6.00 Build 0)  -->
<!DOCTYPE svg PUBLIC "-//W3C//DTD SVG 1.1//EN" "http://www.w3.org/Graphics/SVG/1.1/DTD/svg11.dtd">
<svg version="1.1" id="Layer_1" xmlns="http://www.w3.org/2000/svg" xmlns:xlink="http://www.w3.org/1999/xlink" x="0px" y="0px"
	 width="98.321px" height="108.866px" viewBox="256.914 316.518 98.321 108.866"
	 enable-background="new 256.914 316.518 98.321 108.866" xml:space="preserve">
<path fill="#3F489E" d="M322.31,322.903C322.31,322.903,322.31,322.903,322.31,322.903c0.087,0.026,0.274,0.013,0.361,0.04
	C322.6,322.921,322.41,322.934,322.31,322.903z"/>
<path fill="#3F489E" d="M322.181,322.864c0.043,0.013,0.086,0.026,0.129,0.039c0,0,0,0,0,0
	C322.268,322.891,322.23,322.879,322.181,322.864z"/>
<path fill="#FFFFFF" d="M314.735,425.384c-1.786,0-5.235-0.056-8.269-0.43c-3.097-0.383-17.698-3.352-23.483-6.661
	c-0.222-0.128-0.672-0.357-1.149-0.601c-0.691-0.354-1.406-0.718-1.66-0.888c-3.153-2.094-14.353-16.323-17.794-24.8
	c-6.1-15.025-6.696-37.112-3.749-49.785c1.357-5.835,6.365-13.105,12.971-15.085c1.918-0.576,3.967-0.867,6.09-0.867
	c6.47,0,12.289,2.747,13.898,4.035c0.786-0.306,1.143-0.461,1.764-0.73l0.515-0.222c0.515-8.578,10.653-12.727,17.425-12.83
	l0.204-0.001c4.501,0,8.729,2.347,10.424,4.555c0.41,0.535,0.64,1.031,0.678,1.459l0.116,0.014
	c8.3,2.547,24.399,9.952,26.454,19.849c0.181,0.592,0.672,2.472,0.759,3.403c1.021,7.416,3.52,29.229,3.825,33.812l0.087,1.294
	c0.332,4.862,1.212,17.778,1.394,27.532c0.046,2.479-5.951,6.328-17.824,11.439c-12.688,5.464-15.697,5.478-22.291,5.508H314.735z
	 M311.184,422.103c0.281,0.194,1.626,0.474,4.302,0.474c1.758,0,3.53-0.122,4.863-0.334c9.143-1.457,30.938-11.541,31.998-14.174
	c0.4-0.99-0.042-10.232-1.312-27.47l-0.157-2.158c-0.172-2.443-2.185-22.105-2.919-28.748c-0.561,0.969-1.078,1.751-1.543,2.333
	c-0.35,0.438-2.135,2.4-2.76,2.812c-6.079,4.003-5.967,4.79-4.891,12.312l0.036,0.258c0.154,1.063-0.125,2.042-0.805,2.827
	c-0.945,1.092-2.646,1.77-4.436,1.77c-2.036,0-3.513-0.889-3.763-2.264c-1.313-7.236-3.967-8.841-8.104-9.167
	c-1.712-0.135-16.657-2.571-22.802-5.566c2.824,5.812,8.355,24.854,9.979,37.889C309.796,400.322,310.911,413.26,311.184,422.103z
	 M281.105,339.948c-1.71,9.921,0.188,22.412,1.865,33.452c0.496,3.267,0.965,6.352,1.341,9.323c0.419,3.319,0.653,7.85,0.9,12.646
	c0.472,9.14,1.058,20.515,3.23,21.558c3.195,1.534,15.34,5.02,18.865,5.02c0.157,0,0.28-0.007,0.374-0.018
	c0.276-3.672-1.296-49.938-14.481-71.48C289.681,344.698,285.614,341.168,281.105,339.948z M269.669,335.106
	c-2.052,0.212-4.188,0.541-4.5,0.776c-6.048,6.715-6.021,27.298-2.848,44.14c2.827,15.011,14.213,31.067,20.825,35.074
	c0.131-1.671-0.427-7.795-0.719-8.632c-7.797-6.532-16.288-22.861-17.475-41.523C263.883,348.109,268.353,337.75,269.669,335.106z
	 M274.351,334.954c-0.215,0-0.431,0.006-0.645,0.019c-1.764,0.103-3.477,3.859-4.582,10.049c-1.032,5.785-1.448,13.197-1.085,19.344
	c1.27,21.477,10.332,34.158,14.21,37.78c0.234-9.6-2.175-28.743-2.975-33.447c-2.056-12.136-2.171-24.506-1.672-26.706
	c0.105-0.465,0.12-0.909,0.135-1.379c0.043-1.308,0.087-2.657,2.126-4.227C278.987,335.663,276.691,334.954,274.351,334.954z
	 M334.163,365.098c-0.148,0-0.305,0.017-0.464,0.051c-0.377,0.079-0.722,0.34-0.969,0.736c-0.295,0.471-0.412,1.063-0.301,1.509
	c0.181,0.718,1.273,1.194,1.917,1.194c0.364-0.026,0.773-0.211,1.055-0.57c0.284-0.363,0.39-0.838,0.304-1.376
	C335.543,365.632,335.01,365.098,334.163,365.098z M283.955,337.457c4.899,2.273,7.854,5.587,10.715,8.796
	c3.049,3.419,5.93,6.65,10.87,8.04c4.518,1.271,17.185,3.318,20.536,3.318c0.106,0,0.204-0.002,0.291-0.006
	c2.461-0.121,19.641-3.347,19.203-12.937c-0.267-5.704-1.643-7.325-7.412-11.78c-5.436-4.198-10.771-6.376-16.312-6.662
	c-0.217-0.011-0.443-0.017-0.681-0.017c-6.372,0-20.022,3.954-27.083,6.29C292.525,333.015,286.068,335.82,283.955,337.457z
	 M273.809,332.054c6.138,0,8.095,1.862,8.663,2.691c1.082-0.494,4.522-2.079,6.249-3.04c-1.922-1.114-6.391-2.438-11.157-2.438
	c-3.157,0-7.335,0.596-10.059,3.296C269.833,332.226,271.949,332.054,273.809,332.054z M304.219,326.016
	c1.693-0.41,3.159-0.763,4.452-1.062c-0.79-0.36-3.14-1.017-5.749-0.923c-1.929,0.011-3.699,0.793-3.985,0.991
	c-0.863,0.597-1.933,2.275-1.875,3.307c0.809-0.358,2.266-0.94,4.095-1.492C302.096,326.554,302.553,326.419,304.219,326.016z
	 M304.602,321.592c3.496,0,6.223,0.947,7.386,2.548c0.077-0.017,0.166-0.037,0.266-0.06c1.087-0.248,3.563-0.812,7.169-1.159
	c-0.908-1.692-3.542-3.351-7.647-3.356c-2.997,0-6.457,0.836-9.133,2.135C303.276,321.629,303.937,321.592,304.602,321.592z"/>
</svg>
